<?xml version="1.0" standalone="no"?>
<!DOCTYPE svg PUBLIC "-//W3C//DTD SVG 20010904//EN"
 "http://www.w3.org/TR/2001/REC-SVG-20010904/DTD/svg10.dtd">
<svg version="1.0" xmlns="http://www.w3.org/2000/svg"
 width="720.000000pt" height="720.000000pt" viewBox="0 0 720.000000 720.000000"
 preserveAspectRatio="xMidYMid meet">
<metadata>
Created by potrace 1.11, written by Peter Selinger 2001-2013
</metadata>
<g transform="translate(0.000000,720.000000) scale(0.100000,-0.100000)"
fill="#000000" stroke="none">
<path d="M2314 7179 c-23 -4 -56 -17 -74 -28 -25 -15 -37 -17 -47 -9 -7 6 -13
8 -13 5 0 -4 -17 0 -37 7 -34 12 -101 14 -143 4 -9 -2 -34 -14 -55 -27 -30
-17 -55 -23 -100 -23 -66 0 -121 -18 -145 -47 -12 -14 -30 -18 -75 -18 -117 0
-195 -25 -248 -78 -23 -24 -37 -29 -86 -31 -132 -6 -205 -70 -203 -179 0 -27
7 -66 15 -85 14 -32 14 -37 -10 -83 -36 -68 -34 -121 6 -192 20 -36 30 -63 25
-74 -20 -47 -1 -128 45 -193 35 -50 40 -64 40 -113 0 -64 29 -125 82 -169 23
-20 32 -37 35 -67 7 -74 61 -151 148 -210 22 -15 40 -38 47 -59 26 -82 92
-145 179 -171 33 -10 46 -20 56 -45 29 -70 99 -124 184 -141 17 -3 33 -9 35
-13 3 -5 -25 -27 -62 -50 -106 -66 -181 -127 -265 -214 -43 -44 -78 -83 -78
-86 0 -4 -11 -19 -24 -34 -46 -54 -132 -247 -150 -336 -3 -14 -10 -43 -15 -65
-13 -55 -20 -112 -27 -234 -5 -78 -11 -113 -27 -140 -21 -37 -64 -81 -79 -81
-18 0 -177 -170 -225 -240 -190 -282 -251 -601 -172 -900 11 -41 21 -81 21
-87 1 -7 6 -13 11 -13 6 0 7 -3 4 -6 -3 -4 -1 -16 5 -28 7 -11 13 -23 13 -26
8 -41 102 -195 166 -271 22 -26 39 -53 39 -61 0 -8 9 -50 21 -94 11 -43 21
-83 23 -89 1 -5 4 -14 7 -20 4 -5 12 -28 19 -50 6 -22 25 -77 41 -122 31 -86
36 -103 45 -168 9 -60 71 -240 109 -314 116 -228 296 -410 528 -534 37 -20 67
-35 67 -32 0 9 73 -36 129 -80 66 -50 226 -155 237 -155 4 0 15 -6 23 -14 25
-22 178 -97 311 -152 36 -14 77 -38 91 -53 117 -119 317 -250 447 -292 20 -6
42 -14 47 -18 6 -3 15 -6 20 -8 6 -1 44 -9 85 -18 105 -23 141 -26 260 -26
103 1 164 5 206 15 12 2 37 7 55 10 42 7 157 46 224 76 112 50 285 171 364
253 22 23 63 47 115 68 100 40 300 139 304 151 2 4 8 8 13 8 6 0 22 8 37 19
15 10 54 36 87 57 33 21 66 44 75 50 52 42 112 84 120 84 6 0 10 4 10 8 0 5 6
9 13 9 28 0 210 101 265 147 64 54 118 105 156 145 23 25 48 52 57 61 47 50
169 256 169 286 0 7 3 14 8 16 7 3 50 125 57 164 2 11 4 19 5 19 2 0 3 6 15
75 4 19 35 121 70 225 35 105 69 217 75 250 11 53 33 96 73 137 40 42 110 167
168 303 7 18 35 109 38 128 0 4 1 8 2 10 7 21 21 177 20 222 -2 39 -8 116 -15
165 -5 40 -36 163 -48 190 -6 14 -14 34 -18 45 -63 171 -227 390 -359 480 -66
45 -91 99 -96 203 -10 215 -49 381 -125 532 -63 126 -163 247 -275 336 -27 21
-59 47 -69 56 -11 10 -32 24 -48 30 -15 7 -28 16 -28 20 0 5 -4 8 -10 8 -5 0
-25 11 -45 24 l-35 24 56 17 c62 18 98 37 130 70 22 22 55 78 54 92 0 5 3 8 8
8 4 0 13 4 20 8 6 5 12 6 12 3 0 -3 18 3 40 13 71 32 138 107 147 166 2 11 12
27 23 35 105 77 166 156 173 225 3 30 13 50 38 75 56 56 71 88 77 159 4 50 12
76 32 106 31 46 63 105 56 105 -3 0 -1 13 4 28 5 19 3 40 -6 60 -11 27 -10 34
6 54 28 37 52 100 52 140 -1 20 -12 59 -26 86 -24 48 -25 52 -10 87 34 82 11
177 -54 220 -46 30 -69 36 -139 37 -39 0 -56 5 -71 22 -61 64 -129 88 -257 89
-45 0 -64 5 -76 19 -27 31 -87 49 -150 47 -32 -1 -64 3 -71 9 -33 27 -105 49
-153 46 -58 -3 -102 -11 -124 -24 -10 -5 -24 -2 -41 10 -60 43 -133 40 -242
-8 -25 -11 -48 -19 -50 -17 -3 3 -67 16 -83 16 -35 1 -82 -13 -128 -38 -39
-21 -60 -27 -83 -23 -80 17 -143 -6 -224 -81 -52 -47 -58 -50 -103 -47 -26 2
-48 1 -50 -2 -1 -3 -21 -18 -43 -33 -93 -63 -221 -219 -277 -337 -11 -25 -25
-48 -30 -51 -5 -3 -8 -10 -7 -15 0 -5 -6 -25 -14 -44 -28 -67 -33 -83 -35
-105 -2 -31 -18 -13 -34 38 -24 75 -100 229 -150 301 -56 82 -139 168 -204
213 -44 30 -61 36 -99 34 -37 -1 -51 3 -68 21 -44 48 -112 96 -146 104 -19 4
-59 7 -89 6 -43 -2 -68 4 -118 29 -63 31 -125 37 -178 18 -12 -4 -35 -1 -55 8
-88 38 -135 49 -176 42z"/>
</g>
</svg>
